<svg width="757" height="498" viewBox="0 0 757 498" fill="none" xmlns="http://www.w3.org/2000/svg">
<rect x="48" y="404" width="219" height="94" fill="#F56B00"/>
<path d="M60.514 91V84.722H74.188V37.078H60.514V30.8H95.086V37.078H81.412V84.722H95.086V91H60.514ZM133.838 91C129.94 91 126.872 90.054 124.636 88.162C122.4 86.27 121.282 82.8587 121.282 77.928V54.536H110.446V48.344H116.896C119.82 48.344 121.512 46.9107 121.97 44.044L123.174 37.422H128.506V48.344H145.534V54.536H128.506V77.928C128.506 80.336 129.051 82.0273 130.14 83.002C131.287 83.9767 133.236 84.464 135.988 84.464H145.534V91H133.838ZM209.537 91L228.371 30.8H236.713L255.461 91H247.549L243.163 76.036H221.835L217.449 91H209.537ZM232.327 40.948L223.641 70.016H241.357L232.671 40.948H232.327ZM264.716 91V84.808H279.25V37.422C279.25 35.9887 278.533 35.272 277.1 35.272H266.264V29.08H278.82C281.285 29.08 283.177 29.7393 284.496 31.058C285.814 32.3767 286.474 34.2687 286.474 36.734V84.808H301.008V91H264.716ZM320.496 91L311.036 48.344H318.174L324.28 80.25L331.59 48.344H339.674L346.984 80.25L353.09 48.344H360.314L350.768 91H343.372L335.632 57.89L327.892 91H320.496ZM383.586 92.032C380.204 92.032 377.394 91.43 375.158 90.226C372.922 89.022 371.26 87.4453 370.17 85.496C369.081 83.4893 368.536 81.3107 368.536 78.96C368.536 74.6027 370.113 71.306 373.266 69.07C376.477 66.7767 380.748 65.63 386.08 65.63H397.776V64.77C397.776 57.3167 394.365 53.59 387.542 53.59C384.79 53.59 382.468 54.192 380.576 55.396C378.742 56.6 377.566 58.492 377.05 61.072H369.654C369.941 58.2053 370.887 55.74 372.492 53.676C374.155 51.612 376.276 50.0353 378.856 48.946C381.436 47.8567 384.332 47.312 387.542 47.312C393.62 47.312 398.034 48.9173 400.786 52.128C403.596 55.2813 405 59.4953 405 64.77V91H398.808L398.206 84.378H397.604C396.343 86.442 394.652 88.248 392.53 89.796C390.466 91.2867 387.485 92.032 383.586 92.032ZM384.876 85.668C387.628 85.668 389.95 85.0087 391.842 83.69C393.792 82.3713 395.254 80.6227 396.228 78.444C397.26 76.2653 397.776 73.886 397.776 71.306H386.682C382.784 71.306 380.032 71.9653 378.426 73.284C376.878 74.6027 376.104 76.3513 376.104 78.53C376.104 80.766 376.85 82.5147 378.34 83.776C379.831 85.0373 382.01 85.668 384.876 85.668ZM425.779 109.92L436.271 86.872H433.777L416.921 48.344H424.747L438.765 81.368L453.557 48.344H461.125L433.347 109.92H425.779ZM490.761 92.032C485.315 92.032 480.9 90.7707 477.517 88.248C474.192 85.668 472.329 82.142 471.927 77.67H479.409C479.753 80.0207 480.9 81.9413 482.849 83.432C484.856 84.9227 487.551 85.668 490.933 85.668C494.144 85.668 496.523 84.98 498.071 83.604C499.677 82.228 500.479 80.6513 500.479 78.874C500.479 76.466 499.533 74.832 497.641 73.972C495.749 73.0547 492.911 72.3667 489.127 71.908C484.598 71.392 480.843 70.1593 477.861 68.21C474.88 66.2607 473.389 63.3367 473.389 59.438C473.389 55.9407 474.851 53.0453 477.775 50.752C480.699 48.4587 484.684 47.312 489.729 47.312C494.717 47.312 498.645 48.4587 501.511 50.752C504.378 52.988 506.012 56.1987 506.413 60.384H499.275C499.103 58.32 498.1 56.686 496.265 55.482C494.488 54.2207 492.252 53.59 489.557 53.59C486.748 53.59 484.569 54.1347 483.021 55.224C481.473 56.256 480.699 57.632 480.699 59.352C480.699 61.072 481.559 62.5053 483.279 63.652C485.057 64.7413 487.837 65.458 491.621 65.802C494.603 66.146 497.326 66.7193 499.791 67.522C502.257 68.3247 504.206 69.586 505.639 71.306C507.13 73.026 507.875 75.434 507.875 78.53C507.933 81.11 507.216 83.432 505.725 85.496C504.292 87.5027 502.285 89.108 499.705 90.312C497.125 91.4587 494.144 92.032 490.761 92.032ZM78.402 189.032C74.1593 189.032 70.4613 188.229 67.308 186.624C64.212 185.019 61.804 182.783 60.084 179.916C58.4213 177.049 57.5613 173.695 57.504 169.854H65.072C65.1293 173.294 66.276 176.275 68.512 178.798C70.8053 181.263 74.102 182.496 78.402 182.496C82.358 182.496 85.3967 181.55 87.518 179.658C89.6967 177.709 90.786 175.387 90.786 172.692C90.786 170.456 90.27 168.593 89.238 167.102C88.206 165.554 86.5147 164.207 84.164 163.06C81.8707 161.856 78.7747 160.623 74.876 159.362C69.372 157.699 65.3587 155.435 62.836 152.568C60.3133 149.701 59.052 146.147 59.052 141.904C59.052 139.037 59.7973 136.457 61.288 134.164C62.7787 131.871 64.9287 130.065 67.738 128.746C70.5473 127.427 73.9587 126.768 77.972 126.768C81.756 126.768 85.0527 127.485 87.862 128.918C90.7287 130.294 92.936 132.243 94.484 134.766C96.0893 137.289 96.892 140.184 96.892 143.452H89.324C89.324 141.847 88.894 140.27 88.034 138.722C87.174 137.174 85.884 135.884 84.164 134.852C82.444 133.82 80.2653 133.304 77.628 133.304C74.4747 133.304 71.8373 134.078 69.716 135.626C67.5947 137.117 66.534 139.181 66.534 141.818C66.534 143.825 66.9927 145.516 67.91 146.892C68.8847 148.268 70.4613 149.529 72.64 150.676C74.8187 151.765 77.7713 152.941 81.498 154.202C84.9953 155.349 87.9767 156.696 90.442 158.244C92.9647 159.735 94.8853 161.598 96.204 163.834C97.58 166.07 98.268 168.851 98.268 172.176C98.268 175.444 97.4367 178.339 95.774 180.862C94.1113 183.385 91.7893 185.391 88.808 186.882C85.8267 188.315 82.358 189.032 78.402 189.032ZM129.796 189.032C125.783 189.032 122.228 188.115 119.132 186.28C116.094 184.388 113.686 181.779 111.908 178.454C110.131 175.071 109.242 171.144 109.242 166.672C109.242 162.2 110.102 158.301 111.822 154.976C113.6 151.593 116.036 148.985 119.132 147.15C122.228 145.258 125.84 144.312 129.968 144.312C134.096 144.312 137.622 145.258 140.546 147.15C143.47 148.985 145.706 151.421 147.254 154.46C148.802 157.499 149.576 160.767 149.576 164.264C149.576 164.895 149.548 165.525 149.49 166.156C149.49 166.787 149.49 167.503 149.49 168.306H116.38C116.552 171.459 117.269 174.097 118.53 176.218C119.849 178.282 121.483 179.83 123.432 180.862C125.439 181.894 127.56 182.41 129.796 182.41C132.95 182.41 135.415 181.751 137.192 180.432C138.97 179.113 140.317 177.279 141.234 174.928H148.372C147.398 178.884 145.362 182.238 142.266 184.99C139.17 187.685 135.014 189.032 129.796 189.032ZM129.796 150.762C126.471 150.762 123.547 151.765 121.024 153.772C118.559 155.779 117.04 158.588 116.466 162.2H142.438C142.209 158.645 140.919 155.865 138.568 153.858C136.275 151.794 133.351 150.762 129.796 150.762ZM181.363 189.032C177.349 189.032 173.795 188.115 170.699 186.28C167.66 184.388 165.252 181.779 163.475 178.454C161.697 175.071 160.809 171.144 160.809 166.672C160.809 162.2 161.669 158.301 163.389 154.976C165.166 151.593 167.603 148.985 170.699 147.15C173.795 145.258 177.407 144.312 181.535 144.312C185.663 144.312 189.189 145.258 192.113 147.15C195.037 148.985 197.273 151.421 198.821 154.46C200.369 157.499 201.143 160.767 201.143 164.264C201.143 164.895 201.114 165.525 201.057 166.156C201.057 166.787 201.057 167.503 201.057 168.306H167.947C168.119 171.459 168.835 174.097 170.097 176.218C171.415 178.282 173.049 179.83 174.999 180.862C177.005 181.894 179.127 182.41 181.363 182.41C184.516 182.41 186.981 181.751 188.759 180.432C190.536 179.113 191.883 177.279 192.801 174.928H199.939C198.964 178.884 196.929 182.238 193.833 184.99C190.737 187.685 186.58 189.032 181.363 189.032ZM181.363 150.762C178.037 150.762 175.113 151.765 172.591 153.772C170.125 155.779 168.606 158.588 168.033 162.2H194.005C193.775 158.645 192.485 155.865 190.135 153.858C187.841 151.794 184.917 150.762 181.363 150.762ZM209.881 188V145.344H215.815L216.589 150.332H217.019C217.765 148.612 218.883 147.179 220.373 146.032C221.921 144.885 223.785 144.312 225.963 144.312C228.142 144.312 229.977 144.857 231.467 145.946C233.015 146.978 234.133 148.44 234.821 150.332H235.165C235.911 148.612 237.115 147.179 238.777 146.032C240.44 144.885 242.447 144.312 244.797 144.312C248.065 144.312 250.502 145.43 252.107 147.666C253.77 149.845 254.601 152.769 254.601 156.438V188H247.549V157.556C247.549 155.492 247.119 153.858 246.259 152.654C245.457 151.45 244.138 150.848 242.303 150.848C240.411 150.848 238.863 151.565 237.659 152.998C236.455 154.431 235.853 156.467 235.853 159.104V188H228.715V157.556C228.715 155.492 228.314 153.858 227.511 152.654C226.709 151.45 225.39 150.848 223.555 150.848C221.663 150.848 220.087 151.565 218.825 152.998C217.621 154.431 217.019 156.467 217.019 159.104V188H209.881ZM284.496 189.032C279.049 189.032 274.634 187.771 271.252 185.248C267.926 182.668 266.063 179.142 265.662 174.67H273.144C273.488 177.021 274.634 178.941 276.584 180.432C278.59 181.923 281.285 182.668 284.668 182.668C287.878 182.668 290.258 181.98 291.806 180.604C293.411 179.228 294.214 177.651 294.214 175.874C294.214 173.466 293.268 171.832 291.376 170.972C289.484 170.055 286.646 169.367 282.862 168.908C278.332 168.392 274.577 167.159 271.596 165.21C268.614 163.261 267.124 160.337 267.124 156.438C267.124 152.941 268.586 150.045 271.51 147.752C274.434 145.459 278.418 144.312 283.464 144.312C288.452 144.312 292.379 145.459 295.246 147.752C298.112 149.988 299.746 153.199 300.148 157.384H293.01C292.838 155.32 291.834 153.686 290 152.482C288.222 151.221 285.986 150.59 283.292 150.59C280.482 150.59 278.304 151.135 276.756 152.224C275.208 153.256 274.434 154.632 274.434 156.352C274.434 158.072 275.294 159.505 277.014 160.652C278.791 161.741 281.572 162.458 285.356 162.802C288.337 163.146 291.06 163.719 293.526 164.522C295.991 165.325 297.94 166.586 299.374 168.306C300.864 170.026 301.61 172.434 301.61 175.53C301.667 178.11 300.95 180.432 299.46 182.496C298.026 184.503 296.02 186.108 293.44 187.312C290.86 188.459 287.878 189.032 284.496 189.032ZM77.714 383.032C73.7007 383.032 70.1173 382.201 66.964 380.538C63.868 378.875 61.4027 376.353 59.568 372.97C57.7907 369.53 56.902 365.23 56.902 360.07V321.8H64.126V360.328C64.126 365.488 65.3873 369.473 67.91 372.282C70.4327 375.091 73.758 376.496 77.886 376.496C82.014 376.496 85.3107 375.091 87.776 372.282C90.2413 369.473 91.474 365.488 91.474 360.328V321.8H98.698V360.07C98.698 365.23 97.7807 369.53 95.946 372.97C94.1113 376.353 91.6173 378.875 88.464 380.538C85.3107 382.201 81.7273 383.032 77.714 383.032ZM111.134 382V339.344H117.154L117.928 345.794H118.358C119.505 343.73 121.311 341.981 123.776 340.548C126.242 339.057 129.08 338.312 132.29 338.312C137.508 338.312 141.406 339.86 143.986 342.956C146.624 346.052 147.942 350.524 147.942 356.372V382H140.718V357.232C140.718 353.448 139.887 350.495 138.224 348.374C136.562 346.195 133.982 345.106 130.484 345.106C127.102 345.106 124.235 346.281 121.884 348.632C119.534 350.925 118.358 354.251 118.358 358.608V382H111.134ZM185.405 382C181.506 382 178.439 381.054 176.203 379.162C173.967 377.27 172.849 373.859 172.849 368.928V345.536H162.013V339.344H168.463C171.387 339.344 173.078 337.911 173.537 335.044L174.741 328.422H180.073V339.344H197.101V345.536H180.073V368.928C180.073 371.336 180.617 373.027 181.707 374.002C182.853 374.977 184.803 375.464 187.555 375.464H197.101V382H185.405ZM231.983 331.776C230.263 331.776 228.83 331.203 227.683 330.056C226.537 328.909 225.963 327.533 225.963 325.928C225.963 324.265 226.537 322.889 227.683 321.8C228.83 320.653 230.263 320.08 231.983 320.08C233.646 320.08 235.051 320.653 236.197 321.8C237.401 322.889 238.003 324.265 238.003 325.928C238.003 327.533 237.401 328.909 236.197 330.056C235.051 331.203 233.646 331.776 231.983 331.776ZM215.299 382V375.808H228.887V347.686C228.887 346.253 228.171 345.536 226.737 345.536H216.761V339.344H228.457C233.56 339.344 236.111 341.895 236.111 346.998V375.808H249.699V382H215.299ZM264.716 382V375.808H279.25V328.422C279.25 326.989 278.533 326.272 277.1 326.272H266.264V320.08H278.82C281.285 320.08 283.177 320.739 284.496 322.058C285.814 323.377 286.474 325.269 286.474 327.734V375.808H301.008V382H264.716ZM386.682 331.776C384.962 331.776 383.529 331.203 382.382 330.056C381.236 328.909 380.662 327.533 380.662 325.928C380.662 324.265 381.236 322.889 382.382 321.8C383.529 320.653 384.962 320.08 386.682 320.08C388.345 320.08 389.75 320.653 390.896 321.8C392.1 322.889 392.702 324.265 392.702 325.928C392.702 327.533 392.1 328.909 390.896 330.056C389.75 331.203 388.345 331.776 386.682 331.776ZM369.998 382V375.808H383.586V347.686C383.586 346.253 382.87 345.536 381.436 345.536H371.46V339.344H383.156C388.259 339.344 390.81 341.895 390.81 346.998V375.808H404.398V382H369.998ZM443.237 382C439.338 382 436.271 381.054 434.035 379.162C431.799 377.27 430.681 373.859 430.681 368.928V345.536H419.845V339.344H426.295C429.219 339.344 430.91 337.911 431.369 335.044L432.573 328.422H437.905V339.344H454.933V345.536H437.905V368.928C437.905 371.336 438.45 373.027 439.539 374.002C440.686 374.977 442.635 375.464 445.387 375.464H454.933V382H443.237ZM483.709 345.88L489.471 321.8H498.759L490.245 345.88H483.709ZM542.328 383.032C536.881 383.032 532.466 381.771 529.084 379.248C525.758 376.668 523.895 373.142 523.494 368.67H530.976C531.32 371.021 532.466 372.941 534.416 374.432C536.422 375.923 539.117 376.668 542.5 376.668C545.71 376.668 548.09 375.98 549.638 374.604C551.243 373.228 552.046 371.651 552.046 369.874C552.046 367.466 551.1 365.832 549.208 364.972C547.316 364.055 544.478 363.367 540.694 362.908C536.164 362.392 532.409 361.159 529.428 359.21C526.446 357.261 524.956 354.337 524.956 350.438C524.956 346.941 526.418 344.045 529.342 341.752C532.266 339.459 536.25 338.312 541.296 338.312C546.284 338.312 550.211 339.459 553.078 341.752C555.944 343.988 557.578 347.199 557.98 351.384H550.842C550.67 349.32 549.666 347.686 547.832 346.482C546.054 345.221 543.818 344.59 541.124 344.59C538.314 344.59 536.136 345.135 534.588 346.224C533.04 347.256 532.266 348.632 532.266 350.352C532.266 352.072 533.126 353.505 534.846 354.652C536.623 355.741 539.404 356.458 543.188 356.802C546.169 357.146 548.892 357.719 551.358 358.522C553.823 359.325 555.772 360.586 557.206 362.306C558.696 364.026 559.442 366.434 559.442 369.53C559.499 372.11 558.782 374.432 557.292 376.496C555.858 378.503 553.852 380.108 551.272 381.312C548.692 382.459 545.71 383.032 542.328 383.032ZM57.676 479V418.8H70.318C80.1793 418.8 87.4607 421.495 92.162 426.884C96.9207 432.273 99.3 439.612 99.3 448.9C99.3 458.188 96.9207 465.527 92.162 470.916C87.4607 476.305 80.1793 479 70.318 479H57.676ZM64.9 472.378H70.146C75.4207 472.378 79.6347 471.403 82.788 469.454C85.9987 467.505 88.3207 464.781 89.754 461.284C91.1873 457.787 91.904 453.659 91.904 448.9C91.904 444.141 91.1873 440.013 89.754 436.516C88.3207 433.019 85.9987 430.295 82.788 428.346C79.6347 426.397 75.4207 425.422 70.146 425.422H64.9V472.378ZM129.366 480.032C125.353 480.032 121.798 479.115 118.702 477.28C115.606 475.445 113.17 472.865 111.392 469.54C109.615 466.157 108.726 462.201 108.726 457.672C108.726 453.143 109.615 449.215 111.392 445.89C113.17 442.507 115.606 439.899 118.702 438.064C121.798 436.229 125.353 435.312 129.366 435.312C133.38 435.312 136.934 436.229 140.03 438.064C143.126 439.899 145.563 442.507 147.34 445.89C149.118 449.215 150.006 453.143 150.006 457.672C150.006 462.201 149.118 466.157 147.34 469.54C145.563 472.865 143.126 475.445 140.03 477.28C136.934 479.115 133.38 480.032 129.366 480.032ZM129.366 473.152C131.832 473.152 134.068 472.607 136.074 471.518C138.081 470.429 139.658 468.737 140.804 466.444C142.008 464.151 142.61 461.227 142.61 457.672C142.61 454.117 142.008 451.193 140.804 448.9C139.658 446.607 138.081 444.915 136.074 443.826C134.068 442.737 131.832 442.192 129.366 442.192C126.958 442.192 124.751 442.737 122.744 443.826C120.738 444.915 119.132 446.607 117.928 448.9C116.724 451.193 116.122 454.117 116.122 457.672C116.122 463.004 117.412 466.931 119.992 469.454C122.572 471.919 125.697 473.152 129.366 473.152ZM162.701 479V436.344H168.721L169.495 442.794H169.925C171.071 440.73 172.877 438.981 175.343 437.548C177.808 436.057 180.646 435.312 183.857 435.312C189.074 435.312 192.973 436.86 195.553 439.956C198.19 443.052 199.509 447.524 199.509 453.372V479H192.285V454.232C192.285 450.448 191.453 447.495 189.791 445.374C188.128 443.195 185.548 442.106 182.051 442.106C178.668 442.106 175.801 443.281 173.451 445.632C171.1 447.925 169.925 451.251 169.925 455.608V479H162.701ZM232.929 480.032C228.916 480.032 225.361 479.115 222.265 477.28C219.227 475.388 216.819 472.779 215.041 469.454C213.264 466.071 212.375 462.144 212.375 457.672C212.375 453.2 213.235 449.301 214.955 445.976C216.733 442.593 219.169 439.985 222.265 438.15C225.361 436.258 228.973 435.312 233.101 435.312C237.229 435.312 240.755 436.258 243.679 438.15C246.603 439.985 248.839 442.421 250.387 445.46C251.935 448.499 252.709 451.767 252.709 455.264C252.709 455.895 252.681 456.525 252.623 457.156C252.623 457.787 252.623 458.503 252.623 459.306H219.513C219.685 462.459 220.402 465.097 221.663 467.218C222.982 469.282 224.616 470.83 226.565 471.862C228.572 472.894 230.693 473.41 232.929 473.41C236.083 473.41 238.548 472.751 240.325 471.432C242.103 470.113 243.45 468.279 244.367 465.928H251.505C250.531 469.884 248.495 473.238 245.399 475.99C242.303 478.685 238.147 480.032 232.929 480.032ZM232.929 441.762C229.604 441.762 226.68 442.765 224.157 444.772C221.692 446.779 220.173 449.588 219.599 453.2H245.571C245.342 449.645 244.052 446.865 241.701 444.858C239.408 442.794 236.484 441.762 232.929 441.762Z" fill="white"/>
<path d="M61.504 285V277.992H76.768V224.808H61.504V217.8H100.096V224.808H84.832V277.992H100.096V285H61.504ZM113.115 285V237.384H119.739L120.603 242.952H121.083C121.915 241.032 123.163 239.432 124.827 238.152C126.555 236.872 128.635 236.232 131.067 236.232C133.499 236.232 135.547 236.84 137.211 238.056C138.939 239.208 140.187 240.84 140.955 242.952H141.339C142.171 241.032 143.515 239.432 145.371 238.152C147.227 236.872 149.467 236.232 152.091 236.232C155.739 236.232 158.458 237.48 160.25 239.976C162.107 242.408 163.035 245.672 163.035 249.768V285H155.163V251.016C155.163 248.712 154.683 246.888 153.723 245.544C152.827 244.2 151.355 243.528 149.307 243.528C147.195 243.528 145.467 244.328 144.123 245.928C142.779 247.528 142.107 249.8 142.107 252.744V285H134.139V251.016C134.139 248.712 133.691 246.888 132.795 245.544C131.899 244.2 130.427 243.528 128.379 243.528C126.267 243.528 124.507 244.328 123.099 245.928C121.755 247.528 121.083 249.8 121.083 252.744V285H113.115ZM174.613 306.12V237.384H181.141L182.101 245.256H182.677C183.893 242.696 185.845 240.552 188.533 238.824C191.221 237.096 194.389 236.232 198.037 236.232C201.877 236.232 205.333 237.192 208.405 239.112C211.541 241.032 214.005 243.88 215.797 247.656C217.589 251.368 218.485 255.912 218.485 261.288C218.485 266.6 217.557 271.112 215.701 274.824C213.909 278.536 211.413 281.352 208.213 283.272C205.077 285.192 201.461 286.152 197.365 286.152C193.717 286.152 190.613 285.384 188.053 283.848C185.557 282.248 183.765 280.392 182.677 278.28V306.12H174.613ZM196.405 278.472C200.437 278.472 203.765 277.064 206.389 274.248C209.013 271.368 210.325 267.016 210.325 261.192C210.325 255.368 209.013 251.048 206.389 248.232C203.765 245.352 200.437 243.912 196.405 243.912C192.373 243.912 189.045 245.352 186.421 248.232C183.797 251.048 182.485 255.368 182.485 261.192C182.485 267.016 183.797 271.368 186.421 274.248C189.045 277.064 192.373 278.472 196.405 278.472ZM253.488 286.152C249.008 286.152 245.04 285.128 241.584 283.08C238.128 281.032 235.408 278.152 233.424 274.44C231.44 270.664 230.448 266.248 230.448 261.192C230.448 256.136 231.44 251.752 233.424 248.04C235.408 244.264 238.128 241.352 241.584 239.304C245.04 237.256 249.008 236.232 253.488 236.232C257.968 236.232 261.936 237.256 265.392 239.304C268.848 241.352 271.568 244.264 273.552 248.04C275.536 251.752 276.528 256.136 276.528 261.192C276.528 266.248 275.536 270.664 273.552 274.44C271.568 278.152 268.848 281.032 265.392 283.08C261.936 285.128 257.968 286.152 253.488 286.152ZM253.488 278.472C256.24 278.472 258.736 277.864 260.976 276.648C263.216 275.432 264.976 273.544 266.256 270.984C267.6 268.424 268.272 265.16 268.272 261.192C268.272 257.224 267.6 253.96 266.256 251.4C264.976 248.84 263.216 246.952 260.976 245.736C258.736 244.52 256.24 243.912 253.488 243.912C250.8 243.912 248.336 244.52 246.096 245.736C243.856 246.952 242.064 248.84 240.72 251.4C239.376 253.96 238.704 257.224 238.704 261.192C238.704 267.144 240.144 271.528 243.024 274.344C245.904 277.096 249.392 278.472 253.488 278.472ZM311.53 286.152C305.45 286.152 300.522 284.744 296.746 281.928C293.034 279.048 290.954 275.112 290.506 270.12H298.858C299.242 272.744 300.522 274.888 302.698 276.552C304.938 278.216 307.946 279.048 311.722 279.048C315.306 279.048 317.962 278.28 319.69 276.744C321.482 275.208 322.378 273.448 322.378 271.464C322.378 268.776 321.322 266.952 319.21 265.992C317.098 264.968 313.93 264.2 309.706 263.688C304.65 263.112 300.458 261.736 297.13 259.56C293.802 257.384 292.138 254.12 292.138 249.768C292.138 245.864 293.77 242.632 297.034 240.072C300.298 237.512 304.746 236.232 310.378 236.232C315.946 236.232 320.33 237.512 323.53 240.072C326.73 242.568 328.554 246.152 329.002 250.824H321.034C320.842 248.52 319.722 246.696 317.674 245.352C315.69 243.944 313.194 243.24 310.186 243.24C307.05 243.24 304.618 243.848 302.89 245.064C301.162 246.216 300.298 247.752 300.298 249.672C300.298 251.592 301.258 253.192 303.178 254.472C305.162 255.688 308.266 256.488 312.49 256.872C315.818 257.256 318.858 257.896 321.61 258.792C324.362 259.688 326.538 261.096 328.138 263.016C329.802 264.936 330.634 267.624 330.634 271.08C330.698 273.96 329.898 276.552 328.234 278.856C326.634 281.096 324.394 282.888 321.514 284.232C318.634 285.512 315.306 286.152 311.53 286.152ZM369.093 286.152C363.013 286.152 358.085 284.744 354.309 281.928C350.597 279.048 348.517 275.112 348.069 270.12H356.421C356.805 272.744 358.085 274.888 360.261 276.552C362.501 278.216 365.509 279.048 369.285 279.048C372.869 279.048 375.525 278.28 377.253 276.744C379.045 275.208 379.941 273.448 379.941 271.464C379.941 268.776 378.885 266.952 376.773 265.992C374.661 264.968 371.493 264.2 367.269 263.688C362.213 263.112 358.021 261.736 354.693 259.56C351.365 257.384 349.701 254.12 349.701 249.768C349.701 245.864 351.333 242.632 354.597 240.072C357.861 237.512 362.309 236.232 367.941 236.232C373.509 236.232 377.893 237.512 381.093 240.072C384.293 242.568 386.117 246.152 386.565 250.824H378.597C378.405 248.52 377.285 246.696 375.237 245.352C373.253 243.944 370.757 243.24 367.749 243.24C364.613 243.24 362.181 243.848 360.453 245.064C358.725 246.216 357.861 247.752 357.861 249.672C357.861 251.592 358.821 253.192 360.741 254.472C362.725 255.688 365.829 256.488 370.053 256.872C373.381 257.256 376.421 257.896 379.173 258.792C381.925 259.688 384.101 261.096 385.701 263.016C387.365 264.936 388.197 267.624 388.197 271.08C388.26 273.96 387.461 276.552 385.797 278.856C384.197 281.096 381.957 282.888 379.077 284.232C376.197 285.512 372.869 286.152 369.093 286.152ZM425.599 228.936C423.679 228.936 422.079 228.296 420.799 227.016C419.519 225.736 418.879 224.2 418.879 222.408C418.879 220.552 419.519 219.016 420.799 217.8C422.079 216.52 423.679 215.88 425.599 215.88C427.455 215.88 429.023 216.52 430.303 217.8C431.647 219.016 432.319 220.552 432.319 222.408C432.319 224.2 431.647 225.736 430.303 227.016C429.023 228.296 427.455 228.936 425.599 228.936ZM406.975 285V278.088H422.143V246.696C422.143 245.096 421.343 244.296 419.743 244.296H408.607V237.384H421.663C427.359 237.384 430.207 240.232 430.207 245.928V278.088H445.375V285H406.975ZM485.37 286.152C481.722 286.152 478.618 285.416 476.058 283.944C473.562 282.408 471.706 280.328 470.49 277.704H469.914L469.049 285H462.426V215.88H470.49V244.2C471.706 242.088 473.594 240.232 476.154 238.632C478.778 237.032 481.85 236.232 485.37 236.232C489.466 236.232 493.082 237.192 496.218 239.112C499.354 241.032 501.818 243.848 503.61 247.56C505.402 251.272 506.298 255.784 506.298 261.096C506.298 266.472 505.402 271.048 503.61 274.824C501.818 278.536 499.322 281.352 496.122 283.272C492.986 285.192 489.402 286.152 485.37 286.152ZM484.314 278.472C488.346 278.472 491.642 277.064 494.202 274.248C496.826 271.368 498.138 267.016 498.138 261.192C498.138 255.368 496.826 251.048 494.202 248.232C491.642 245.352 488.346 243.912 484.314 243.912C480.282 243.912 476.954 245.352 474.33 248.232C471.706 251.048 470.394 255.368 470.394 261.192C470.394 267.016 471.706 271.368 474.33 274.248C476.954 277.064 480.282 278.472 484.314 278.472ZM519.7 285V278.088H535.924V225.192C535.924 223.592 535.124 222.792 533.524 222.792H521.428V215.88H535.444C538.196 215.88 540.308 216.616 541.78 218.088C543.252 219.56 543.988 221.672 543.988 224.424V278.088H560.212V285H519.7ZM599.343 286.152C594.863 286.152 590.895 285.128 587.439 283.08C584.047 280.968 581.359 278.056 579.375 274.344C577.391 270.568 576.398 266.184 576.398 261.192C576.398 256.2 577.359 251.848 579.279 248.136C581.263 244.36 583.983 241.448 587.439 239.4C590.895 237.288 594.927 236.232 599.535 236.232C604.143 236.232 608.079 237.288 611.343 239.4C614.607 241.448 617.103 244.168 618.831 247.56C620.559 250.952 621.423 254.6 621.423 258.504C621.423 259.208 621.391 259.912 621.327 260.616C621.327 261.32 621.327 262.12 621.327 263.016H584.367C584.559 266.536 585.359 269.48 586.767 271.848C588.239 274.152 590.063 275.88 592.239 277.032C594.479 278.184 596.847 278.76 599.343 278.76C602.863 278.76 605.615 278.024 607.599 276.552C609.583 275.08 611.087 273.032 612.111 270.408H620.079C618.991 274.824 616.719 278.568 613.263 281.64C609.807 284.648 605.167 286.152 599.343 286.152ZM599.343 243.432C595.631 243.432 592.367 244.552 589.551 246.792C586.799 249.032 585.103 252.168 584.463 256.2H613.455C613.199 252.232 611.759 249.128 609.135 246.888C606.575 244.584 603.311 243.432 599.343 243.432Z" fill="#F56B00"/>
<path d="M7.826 41.88L16.34 17.8H22.876L17.114 41.88H7.826ZM26.746 41.88L35.26 17.8H41.796L36.034 41.88H26.746Z" fill="white"/>
<path d="M290.826 433.88L299.34 409.8H305.876L300.114 433.88H290.826ZM309.746 433.88L318.26 409.8H324.796L319.034 433.88H309.746Z" fill="white"/>
</svg>
