<svg width="84" height="87" viewBox="0 0 84 87" fill="none" xmlns="http://www.w3.org/2000/svg">
<path fill-rule="evenodd" clip-rule="evenodd" d="M73.7372 0C79.4015 0 84 4.76334 84 10.6302V76.3776C84 82.2445 79.4013 87.0078 73.7372 87.0078H10.2628C4.59867 87.0078 0 82.2445 0 76.3776V10.6302C0 4.76334 4.59851 0 10.2628 0L73.7372 0ZM26.3256 71.9306V33.5729H14.0144V71.9306H26.3256ZM70.7109 71.9306V49.9342C70.7109 38.1519 64.6377 32.6709 56.5391 32.6709C50.0087 32.6709 47.0835 36.391 45.4456 39.0038V33.5729H33.1375C33.3008 37.1724 33.1375 71.9306 33.1375 71.9306H45.4455V50.509C45.4455 49.3623 45.5252 48.2163 45.8514 47.3967C46.7396 45.1068 48.7663 42.7346 52.1668 42.7346C56.6186 42.7346 58.4023 46.2535 58.4023 51.4077V71.9306H70.7109ZM20.2532 15.0772C16.041 15.0772 13.2891 17.9455 13.2891 21.705C13.2891 25.3855 15.9574 28.3329 20.0903 28.3329H20.1697C24.4624 28.3329 27.1345 25.3855 27.1345 21.705C27.0549 17.9508 24.4699 15.0853 20.2532 15.0772Z" fill="#E9E9E9"/>
</svg>
