<svg width="305" height="229" viewBox="0 0 305 229" fill="none" xmlns="http://www.w3.org/2000/svg">
<path d="M6.384 21.252C5.012 21.252 3.92 20.93 3.108 20.286C2.296 19.642 1.834 18.788 1.722 17.724H4.011C4.095 18.214 4.34 18.613 4.746 18.921C5.166 19.229 5.719 19.383 6.405 19.383C7.063 19.383 7.567 19.25 7.917 18.984C8.281 18.704 8.463 18.382 8.463 18.018C8.463 17.486 8.246 17.122 7.812 16.926C7.392 16.73 6.769 16.583 5.943 16.485C5.229 16.401 4.578 16.24 3.99 16.002C3.416 15.75 2.961 15.414 2.625 14.994C2.289 14.56 2.121 14.021 2.121 13.377C2.121 12.467 2.478 11.732 3.192 11.172C3.906 10.612 4.9 10.332 6.174 10.332C7.448 10.332 8.435 10.619 9.135 11.193C9.835 11.767 10.241 12.551 10.353 13.545H8.211C8.155 13.125 7.938 12.796 7.56 12.558C7.182 12.306 6.713 12.18 6.153 12.18C5.579 12.18 5.124 12.292 4.788 12.516C4.452 12.726 4.284 13.006 4.284 13.356C4.284 14.112 5.096 14.574 6.72 14.742C7.49 14.826 8.176 14.973 8.778 15.183C9.38 15.379 9.856 15.694 10.206 16.128C10.556 16.548 10.731 17.143 10.731 17.913C10.745 18.543 10.563 19.11 10.185 19.614C9.821 20.118 9.31 20.517 8.652 20.811C8.008 21.105 7.252 21.252 6.384 21.252ZM18.8918 21.252C17.8978 21.252 17.0088 21.028 16.2248 20.58C15.4408 20.132 14.8248 19.502 14.3768 18.69C13.9288 17.864 13.7048 16.898 13.7048 15.792C13.7048 14.686 13.9288 13.727 14.3768 12.915C14.8248 12.089 15.4408 11.452 16.2248 11.004C17.0088 10.556 17.9048 10.332 18.9128 10.332C19.9208 10.332 20.8098 10.556 21.5798 11.004C22.3638 11.452 22.9728 12.089 23.4068 12.915C23.8548 13.727 24.0788 14.686 24.0788 15.792C24.0788 16.898 23.8548 17.864 23.4068 18.69C22.9588 19.502 22.3428 20.132 21.5588 20.58C20.7888 21.028 19.8998 21.252 18.8918 21.252ZM18.8918 19.131C19.4238 19.131 19.9138 19.012 20.3618 18.774C20.8098 18.536 21.1668 18.172 21.4328 17.682C21.7128 17.178 21.8528 16.548 21.8528 15.792C21.8528 15.022 21.7128 14.392 21.4328 13.902C21.1668 13.412 20.8098 13.048 20.3618 12.81C19.9278 12.572 19.4448 12.453 18.9128 12.453C18.3808 12.453 17.8908 12.572 17.4428 12.81C16.9948 13.048 16.6308 13.412 16.3508 13.902C16.0848 14.392 15.9518 15.022 15.9518 15.792C15.9518 16.94 16.2388 17.787 16.8128 18.333C17.4008 18.865 18.0938 19.131 18.8918 19.131ZM26.6116 21V19.068H30.0976V8.505C30.0976 8.043 29.8736 7.812 29.4256 7.812H26.9056V5.88H29.8246C30.6366 5.88 31.2526 6.097 31.6726 6.531C32.1066 6.951 32.3236 7.567 32.3236 8.379V19.068H35.8306V21H26.6116ZM42.7314 21L38.2164 10.584H40.7364L44.0754 18.648L47.4354 10.584H49.9344L45.3984 21H42.7314ZM56.4572 8.988C55.9672 8.988 55.5542 8.834 55.2182 8.526C54.8962 8.204 54.7352 7.812 54.7352 7.35C54.7352 6.888 54.8962 6.503 55.2182 6.195C55.5542 5.887 55.9672 5.733 56.4572 5.733C56.9612 5.733 57.3742 5.887 57.6962 6.195C58.0322 6.503 58.2002 6.888 58.2002 7.35C58.2002 7.812 58.0322 8.204 57.6962 8.526C57.3742 8.834 56.9612 8.988 56.4572 8.988ZM52.2782 21V19.068H55.5542V13.209C55.5542 12.747 55.3302 12.516 54.8822 12.516H52.5722V10.584H55.2812C56.1492 10.584 56.7792 10.787 57.1712 11.193C57.5772 11.585 57.7802 12.215 57.7802 13.083V19.068H61.0562V21H52.2782ZM64.597 21V10.584H66.529L66.718 12.138H66.823C67.103 11.634 67.537 11.207 68.125 10.857C68.713 10.507 69.392 10.332 70.162 10.332C71.436 10.332 72.395 10.717 73.039 11.487C73.683 12.257 74.005 13.391 74.005 14.889V21H71.779V15.162C71.779 14.294 71.597 13.622 71.233 13.146C70.869 12.67 70.295 12.432 69.511 12.432C68.741 12.432 68.097 12.691 67.579 13.209C67.075 13.727 66.823 14.476 66.823 15.456V21H64.597ZM81.6198 17.997C80.9758 17.997 80.3808 17.892 79.8348 17.682L79.3098 18.312C79.1418 18.522 79.0928 18.725 79.1628 18.921C79.2468 19.103 79.4358 19.194 79.7298 19.194H82.4808C83.6988 19.194 84.6788 19.453 85.4208 19.971C86.1768 20.475 86.5548 21.252 86.5548 22.302C86.5548 22.96 86.3868 23.555 86.0508 24.087C85.7288 24.633 85.2038 25.067 84.4758 25.389C83.7618 25.711 82.8168 25.872 81.6408 25.872C80.1568 25.872 78.9598 25.592 78.0498 25.032C77.1538 24.486 76.7058 23.66 76.7058 22.554C76.7058 22.162 76.7968 21.798 76.9788 21.462C77.1748 21.14 77.4268 20.846 77.7348 20.58C77.3568 20.3 77.1258 19.908 77.0418 19.404C76.9718 18.886 77.1258 18.389 77.5038 17.913L78.4278 16.737C77.7698 16.037 77.4408 15.176 77.4408 14.154C77.4408 13.468 77.6018 12.838 77.9238 12.264C78.2598 11.676 78.7358 11.207 79.3518 10.857C79.9818 10.507 80.7378 10.332 81.6198 10.332C82.1938 10.332 82.7258 10.416 83.2158 10.584H87.1428V12.054L85.3158 12.159V12.348C85.6098 12.894 85.7568 13.496 85.7568 14.154C85.7568 14.84 85.5888 15.477 85.2528 16.065C84.9308 16.653 84.4618 17.122 83.8458 17.472C83.2298 17.822 82.4878 17.997 81.6198 17.997ZM81.6198 16.212C82.2358 16.212 82.7398 16.03 83.1318 15.666C83.5378 15.302 83.7408 14.798 83.7408 14.154C83.7408 13.538 83.5378 13.048 83.1318 12.684C82.7398 12.32 82.2358 12.138 81.6198 12.138C80.9898 12.138 80.4718 12.32 80.0658 12.684C79.6738 13.048 79.4778 13.538 79.4778 14.154C79.4778 14.798 79.6738 15.302 80.0658 15.666C80.4718 16.03 80.9898 16.212 81.6198 16.212ZM78.8058 22.386C78.8058 22.946 79.0718 23.359 79.6038 23.625C80.1498 23.891 80.8288 24.024 81.6408 24.024C82.5088 24.024 83.1948 23.877 83.6988 23.583C84.2028 23.289 84.4548 22.876 84.4548 22.344C84.4548 21.896 84.2728 21.539 83.9088 21.273C83.5448 21.021 82.9288 20.895 82.0608 20.895H79.6038C79.0718 21.315 78.8058 21.812 78.8058 22.386Z" fill="black"/>
<path d="M3.55 68V44.2H11.336C13.1947 44.2 14.7247 44.5173 15.926 45.152C17.15 45.7867 18.0567 46.648 18.646 47.736C19.258 48.8013 19.564 50.014 19.564 51.374C19.564 52.9153 19.1673 54.2867 18.374 55.488C17.6033 56.6667 16.4133 57.528 14.804 58.072L19.802 68H15.62L11.064 58.582H7.154V68H3.55ZM7.154 55.318H11.132C12.764 55.318 13.954 54.9553 14.702 54.23C15.4727 53.5047 15.858 52.5527 15.858 51.374C15.858 50.1727 15.484 49.2207 14.736 48.518C13.988 47.7927 12.7753 47.43 11.098 47.43H7.154V55.318ZM31.7907 68.408C30.1587 68.408 28.7194 68.0453 27.4727 67.32C26.2261 66.572 25.2514 65.5407 24.5487 64.226C23.8461 62.9113 23.4947 61.3813 23.4947 59.636C23.4947 57.868 23.8347 56.3153 24.5147 54.978C25.2174 53.6407 26.1921 52.598 27.4387 51.85C28.7081 51.102 30.1701 50.728 31.8247 50.728C33.4567 50.728 34.8621 51.102 36.0407 51.85C37.2194 52.5753 38.1261 53.55 38.7607 54.774C39.4181 55.998 39.7467 57.3467 39.7467 58.82C39.7467 59.0467 39.7467 59.296 39.7467 59.568C39.7467 59.8173 39.7354 60.1007 39.7127 60.418H27.0307C27.1441 61.982 27.6541 63.172 28.5607 63.988C29.4674 64.7813 30.5327 65.178 31.7567 65.178C32.8221 65.178 33.6607 64.9627 34.2727 64.532C34.9074 64.0787 35.3721 63.4667 35.6667 62.696H39.3047C38.8967 64.3053 38.0467 65.6653 36.7547 66.776C35.4627 67.864 33.8081 68.408 31.7907 68.408ZM31.7907 53.856C30.6801 53.856 29.6941 54.196 28.8327 54.876C27.9714 55.5333 27.4161 56.4627 27.1667 57.664H36.1427C36.0521 56.5307 35.6101 55.6127 34.8167 54.91C34.0234 54.2073 33.0147 53.856 31.7907 53.856ZM50.4434 68.408C49.1061 68.408 47.9841 68.1813 47.0774 67.728C46.1708 67.252 45.4908 66.6287 45.0374 65.858C44.5841 65.0647 44.3574 64.2033 44.3574 63.274C44.3574 61.6193 44.9581 60.3273 46.1594 59.398C47.3834 58.4687 49.1061 58.004 51.3274 58.004H55.6794V57.63C55.6794 55.0913 54.5008 53.822 52.1434 53.822C51.1688 53.822 50.3414 54.0373 49.6614 54.468C49.0041 54.876 48.5621 55.5447 48.3354 56.474H44.7314C44.9128 54.706 45.6721 53.312 47.0094 52.292C48.3694 51.2493 50.0808 50.728 52.1434 50.728C54.6368 50.728 56.4501 51.34 57.5834 52.564C58.7168 53.788 59.2834 55.4767 59.2834 57.63V68H56.2234L55.9174 65.518H55.6794C55.1808 66.3113 54.5574 66.9913 53.8094 67.558C53.0614 68.1247 51.9394 68.408 50.4434 68.408ZM51.1234 65.382C52.5968 65.382 53.6961 64.94 54.4214 64.056C55.1694 63.1493 55.5774 62.0047 55.6454 60.622H51.7014C50.4094 60.622 49.4914 60.8373 48.9474 61.268C48.4261 61.676 48.1654 62.254 48.1654 63.002C48.1654 63.75 48.4261 64.3393 48.9474 64.77C49.4914 65.178 50.2168 65.382 51.1234 65.382ZM64.4722 68V64.872H70.1162V47.77C70.1162 47.022 69.7535 46.648 69.0282 46.648H64.9482V43.52H69.6742C70.9888 43.52 71.9862 43.8713 72.6662 44.574C73.3688 45.254 73.7202 46.2513 73.7202 47.566V64.872H79.3982V68H64.4722ZM106.232 68L102.968 44.2H106.47L108.442 61.506L111.366 44.2H114.902L117.826 61.506L119.798 44.2H123.3L120.036 68H115.854L113.134 51.17L110.414 68H106.232ZM133.52 68.408C131.911 68.408 130.472 68.0453 129.202 67.32C127.933 66.5947 126.936 65.5747 126.21 64.26C125.485 62.9227 125.122 61.3587 125.122 59.568C125.122 57.7773 125.485 56.2247 126.21 54.91C126.936 53.5727 127.933 52.5413 129.202 51.816C130.472 51.0907 131.922 50.728 133.554 50.728C135.186 50.728 136.626 51.0907 137.872 51.816C139.142 52.5413 140.128 53.5727 140.83 54.91C141.556 56.2247 141.918 57.7773 141.918 59.568C141.918 61.3587 141.556 62.9227 140.83 64.26C140.105 65.5747 139.108 66.5947 137.838 67.32C136.592 68.0453 135.152 68.408 133.52 68.408ZM133.52 64.974C134.382 64.974 135.175 64.7813 135.9 64.396C136.626 64.0107 137.204 63.4213 137.634 62.628C138.088 61.812 138.314 60.792 138.314 59.568C138.314 58.3213 138.088 57.3013 137.634 56.508C137.204 55.7147 136.626 55.1253 135.9 54.74C135.198 54.3547 134.416 54.162 133.554 54.162C132.693 54.162 131.9 54.3547 131.174 54.74C130.449 55.1253 129.86 55.7147 129.406 56.508C128.976 57.3013 128.76 58.3213 128.76 59.568C128.76 61.4267 129.225 62.798 130.154 63.682C131.106 64.5433 132.228 64.974 133.52 64.974ZM146.325 68V64.872H150.439V55.386C150.439 54.638 150.076 54.264 149.351 54.264H146.665V51.136H150.711C151.64 51.136 152.4 51.408 152.989 51.952C153.578 52.4733 153.873 53.21 153.873 54.162V54.57H154.043C154.292 53.3007 154.825 52.3487 155.641 51.714C156.48 51.0567 157.692 50.728 159.279 50.728H161.897V54.536H158.225C156.888 54.536 155.856 55.0007 155.131 55.93C154.406 56.8593 154.043 57.97 154.043 59.262V64.872H159.279V68H146.325ZM166.406 68V64.872H172.05V47.77C172.05 47.022 171.687 46.648 170.962 46.648H166.882V43.52H171.608C172.922 43.52 173.92 43.8713 174.6 44.574C175.302 45.254 175.654 46.2513 175.654 47.566V64.872H181.332V68H166.406ZM193.762 68.408C192.357 68.408 191.099 68.0793 189.988 67.422C188.878 66.742 187.994 65.7447 187.336 64.43C186.702 63.1153 186.384 61.4947 186.384 59.568C186.384 57.6413 186.713 56.0207 187.37 54.706C188.028 53.3913 188.912 52.4053 190.022 51.748C191.156 51.068 192.414 50.728 193.796 50.728C195.088 50.728 196.154 50.9773 196.992 51.476C197.831 51.952 198.454 52.564 198.862 53.312V43.52H202.466V68H199.372L199.066 65.518H198.862C198.409 66.402 197.763 67.1047 196.924 67.626C196.108 68.1473 195.054 68.408 193.762 68.408ZM194.51 64.974C195.802 64.974 196.868 64.5207 197.706 63.614C198.568 62.7073 198.998 61.3587 198.998 59.568C198.998 57.7547 198.568 56.406 197.706 55.522C196.868 54.6153 195.802 54.162 194.51 54.162C193.218 54.162 192.142 54.6153 191.28 55.522C190.442 56.4287 190.022 57.7887 190.022 59.602C190.022 61.3927 190.442 62.7413 191.28 63.648C192.142 64.532 193.218 64.974 194.51 64.974ZM3.414 112V88.2H11.472C13.2853 88.2 14.7813 88.5173 15.96 89.152C17.1387 89.764 18.0113 90.614 18.578 91.702C19.1447 92.79 19.428 94.0367 19.428 95.442C19.428 96.8473 19.1447 98.094 18.578 99.182C18.0113 100.27 17.1387 101.131 15.96 101.766C14.7813 102.378 13.2853 102.684 11.472 102.684H7.018V112H3.414ZM7.018 99.454H11.302C12.8433 99.454 13.9653 99.0913 14.668 98.366C15.3933 97.6407 15.756 96.666 15.756 95.442C15.756 94.2407 15.3933 93.2773 14.668 92.552C13.9653 91.804 12.8433 91.43 11.302 91.43H7.018V99.454ZM24.0047 112V108.872H28.1187V99.386C28.1187 98.638 27.7561 98.264 27.0307 98.264H24.3447V95.136H28.3907C29.3201 95.136 30.0794 95.408 30.6687 95.952C31.2581 96.4733 31.5527 97.21 31.5527 98.162V98.57H31.7227C31.9721 97.3007 32.5047 96.3487 33.3207 95.714C34.1594 95.0567 35.3721 94.728 36.9587 94.728H39.5767V98.536H35.9047C34.5674 98.536 33.5361 99.0007 32.8107 99.93C32.0854 100.859 31.7227 101.97 31.7227 103.262V108.872H36.9587V112H24.0047ZM51.9734 112.408C50.3641 112.408 48.9248 112.045 47.6554 111.32C46.3861 110.595 45.3888 109.575 44.6634 108.26C43.9381 106.923 43.5754 105.359 43.5754 103.568C43.5754 101.777 43.9381 100.225 44.6634 98.91C45.3888 97.5727 46.3861 96.5413 47.6554 95.816C48.9248 95.0907 50.3754 94.728 52.0074 94.728C53.6394 94.728 55.0788 95.0907 56.3254 95.816C57.5948 96.5413 58.5808 97.5727 59.2834 98.91C60.0088 100.225 60.3714 101.777 60.3714 103.568C60.3714 105.359 60.0088 106.923 59.2834 108.26C58.5581 109.575 57.5608 110.595 56.2914 111.32C55.0448 112.045 53.6054 112.408 51.9734 112.408ZM51.9734 108.974C52.8348 108.974 53.6281 108.781 54.3534 108.396C55.0788 108.011 55.6568 107.421 56.0874 106.628C56.5408 105.812 56.7674 104.792 56.7674 103.568C56.7674 102.321 56.5408 101.301 56.0874 100.508C55.6568 99.7147 55.0788 99.1253 54.3534 98.74C53.6508 98.3547 52.8688 98.162 52.0074 98.162C51.1461 98.162 50.3528 98.3547 49.6274 98.74C48.9021 99.1253 48.3128 99.7147 47.8594 100.508C47.4288 101.301 47.2134 102.321 47.2134 103.568C47.2134 105.427 47.6781 106.798 48.6074 107.682C49.5594 108.543 50.6814 108.974 51.9734 108.974ZM73.2782 112.408C72.0315 112.408 70.9775 112.159 70.1162 111.66C69.2775 111.139 68.6315 110.425 68.1782 109.518H67.9742L67.6682 112H64.5742V87.52H68.1782V97.312C68.5862 96.632 69.2322 96.0313 70.1162 95.51C71.0002 94.9887 72.0542 94.728 73.2782 94.728C74.6835 94.728 75.9415 95.068 77.0522 95.748C78.1628 96.4053 79.0355 97.3913 79.6702 98.706C80.3275 100.021 80.6562 101.641 80.6562 103.568C80.6562 105.495 80.3275 107.115 79.6702 108.43C79.0355 109.745 78.1628 110.742 77.0522 111.422C75.9415 112.079 74.6835 112.408 73.2782 112.408ZM72.5302 108.974C73.8222 108.974 74.8875 108.532 75.7262 107.648C76.5875 106.741 77.0182 105.393 77.0182 103.602C77.0182 101.789 76.5875 100.429 75.7262 99.522C74.8875 98.6153 73.8222 98.162 72.5302 98.162C71.2382 98.162 70.1615 98.6153 69.3002 99.522C68.4615 100.406 68.0422 101.755 68.0422 103.568C68.0422 105.359 68.4615 106.707 69.3002 107.614C70.1615 108.521 71.2382 108.974 72.5302 108.974ZM84.8589 112V108.872H90.5029V91.77C90.5029 91.022 90.1402 90.648 89.4149 90.648H85.3349V87.52H90.0609C91.3755 87.52 92.3729 87.8713 93.0529 88.574C93.7555 89.254 94.1069 90.2513 94.1069 91.566V108.872H99.7849V112H84.8589ZM113.338 112.408C111.706 112.408 110.266 112.045 109.02 111.32C107.773 110.572 106.798 109.541 106.096 108.226C105.393 106.911 105.042 105.381 105.042 103.636C105.042 101.868 105.382 100.315 106.062 98.978C106.764 97.6407 107.739 96.598 108.986 95.85C110.255 95.102 111.717 94.728 113.372 94.728C115.004 94.728 116.409 95.102 117.588 95.85C118.766 96.5753 119.673 97.55 120.308 98.774C120.965 99.998 121.294 101.347 121.294 102.82C121.294 103.047 121.294 103.296 121.294 103.568C121.294 103.817 121.282 104.101 121.26 104.418H108.578C108.691 105.982 109.201 107.172 110.108 107.988C111.014 108.781 112.08 109.178 113.304 109.178C114.369 109.178 115.208 108.963 115.82 108.532C116.454 108.079 116.919 107.467 117.214 106.696H120.852C120.444 108.305 119.594 109.665 118.302 110.776C117.01 111.864 115.355 112.408 113.338 112.408ZM113.338 97.856C112.227 97.856 111.241 98.196 110.38 98.876C109.518 99.5333 108.963 100.463 108.714 101.664H117.69C117.599 100.531 117.157 99.6127 116.364 98.91C115.57 98.2073 114.562 97.856 113.338 97.856ZM124.17 112V95.136H127.162L127.468 97.108H127.638C127.933 96.4053 128.386 95.8387 128.998 95.408C129.61 94.9547 130.336 94.728 131.174 94.728C131.99 94.728 132.704 94.932 133.316 95.34C133.928 95.748 134.382 96.3373 134.676 97.108H134.812C135.107 96.428 135.572 95.8613 136.206 95.408C136.841 94.9547 137.623 94.728 138.552 94.728C139.799 94.728 140.74 95.136 141.374 95.952C142.032 96.768 142.36 97.9127 142.36 99.386V112H138.892V100.1C138.892 99.42 138.745 98.8873 138.45 98.502C138.178 98.094 137.736 97.89 137.124 97.89C136.512 97.89 136.002 98.128 135.594 98.604C135.209 99.08 135.016 99.7487 135.016 100.61V112H131.514V100.1C131.514 99.42 131.378 98.8873 131.106 98.502C130.834 98.094 130.392 97.89 129.78 97.89C129.168 97.89 128.658 98.128 128.25 98.604C127.842 99.08 127.638 99.7487 127.638 100.61V112H124.17ZM154.043 112.408C151.822 112.408 150.054 111.887 148.739 110.844C147.424 109.801 146.676 108.419 146.495 106.696H150.201C150.337 107.489 150.734 108.135 151.391 108.634C152.071 109.133 152.966 109.382 154.077 109.382C155.142 109.382 155.958 109.167 156.525 108.736C157.114 108.283 157.409 107.761 157.409 107.172C157.409 106.311 157.058 105.721 156.355 105.404C155.675 105.087 154.666 104.849 153.329 104.69C152.173 104.554 151.119 104.293 150.167 103.908C149.238 103.5 148.501 102.956 147.957 102.276C147.413 101.573 147.141 100.701 147.141 99.658C147.141 98.1847 147.719 96.9947 148.875 96.088C150.031 95.1813 151.64 94.728 153.703 94.728C155.766 94.728 157.364 95.1927 158.497 96.122C159.63 97.0513 160.288 98.3207 160.469 99.93H157.001C156.91 99.25 156.559 98.7173 155.947 98.332C155.335 97.924 154.576 97.72 153.669 97.72C152.74 97.72 152.003 97.9013 151.459 98.264C150.915 98.604 150.643 99.0573 150.643 99.624C150.643 100.848 151.958 101.596 154.587 101.868C155.834 102.004 156.944 102.242 157.919 102.582C158.894 102.899 159.664 103.409 160.231 104.112C160.798 104.792 161.081 105.755 161.081 107.002C161.104 108.022 160.809 108.94 160.197 109.756C159.608 110.572 158.78 111.218 157.715 111.694C156.672 112.17 155.448 112.408 154.043 112.408Z" fill="black"/>
<path d="M6.384 228.252C5.012 228.252 3.92 227.93 3.108 227.286C2.296 226.642 1.834 225.788 1.722 224.724H4.011C4.095 225.214 4.34 225.613 4.746 225.921C5.166 226.229 5.719 226.383 6.405 226.383C7.063 226.383 7.567 226.25 7.917 225.984C8.281 225.704 8.463 225.382 8.463 225.018C8.463 224.486 8.246 224.122 7.812 223.926C7.392 223.73 6.769 223.583 5.943 223.485C5.229 223.401 4.578 223.24 3.99 223.002C3.416 222.75 2.961 222.414 2.625 221.994C2.289 221.56 2.121 221.021 2.121 220.377C2.121 219.467 2.478 218.732 3.192 218.172C3.906 217.612 4.9 217.332 6.174 217.332C7.448 217.332 8.435 217.619 9.135 218.193C9.835 218.767 10.241 219.551 10.353 220.545H8.211C8.155 220.125 7.938 219.796 7.56 219.558C7.182 219.306 6.713 219.18 6.153 219.18C5.579 219.18 5.124 219.292 4.788 219.516C4.452 219.726 4.284 220.006 4.284 220.356C4.284 221.112 5.096 221.574 6.72 221.742C7.49 221.826 8.176 221.973 8.778 222.183C9.38 222.379 9.856 222.694 10.206 223.128C10.556 223.548 10.731 224.143 10.731 224.913C10.745 225.543 10.563 226.11 10.185 226.614C9.821 227.118 9.31 227.517 8.652 227.811C8.008 228.105 7.252 228.252 6.384 228.252ZM18.8918 228.252C17.8978 228.252 17.0088 228.028 16.2248 227.58C15.4408 227.132 14.8248 226.502 14.3768 225.69C13.9288 224.864 13.7048 223.898 13.7048 222.792C13.7048 221.686 13.9288 220.727 14.3768 219.915C14.8248 219.089 15.4408 218.452 16.2248 218.004C17.0088 217.556 17.9048 217.332 18.9128 217.332C19.9208 217.332 20.8098 217.556 21.5798 218.004C22.3638 218.452 22.9728 219.089 23.4068 219.915C23.8548 220.727 24.0788 221.686 24.0788 222.792C24.0788 223.898 23.8548 224.864 23.4068 225.69C22.9588 226.502 22.3428 227.132 21.5588 227.58C20.7888 228.028 19.8998 228.252 18.8918 228.252ZM18.8918 226.131C19.4238 226.131 19.9138 226.012 20.3618 225.774C20.8098 225.536 21.1668 225.172 21.4328 224.682C21.7128 224.178 21.8528 223.548 21.8528 222.792C21.8528 222.022 21.7128 221.392 21.4328 220.902C21.1668 220.412 20.8098 220.048 20.3618 219.81C19.9278 219.572 19.4448 219.453 18.9128 219.453C18.3808 219.453 17.8908 219.572 17.4428 219.81C16.9948 220.048 16.6308 220.412 16.3508 220.902C16.0848 221.392 15.9518 222.022 15.9518 222.792C15.9518 223.94 16.2388 224.787 16.8128 225.333C17.4008 225.865 18.0938 226.131 18.8918 226.131ZM26.6116 228V226.068H30.0976V215.505C30.0976 215.043 29.8736 214.812 29.4256 214.812H26.9056V212.88H29.8246C30.6366 212.88 31.2526 213.097 31.6726 213.531C32.1066 213.951 32.3236 214.567 32.3236 215.379V226.068H35.8306V228H26.6116ZM43.1514 228.252C41.8914 228.252 40.9324 227.867 40.2744 227.097C39.6304 226.313 39.3084 225.179 39.3084 223.695V217.584H41.5344V223.422C41.5344 224.276 41.7164 224.948 42.0804 225.438C42.4584 225.914 43.0324 226.152 43.8024 226.152C44.5724 226.152 45.2164 225.893 45.7344 225.375C46.2524 224.857 46.5114 224.108 46.5114 223.128V217.584H48.7374V228H46.8054L46.6164 226.446H46.5114C46.2314 226.95 45.7974 227.377 45.2094 227.727C44.6214 228.077 43.9354 228.252 43.1514 228.252ZM57.8012 228C56.7792 228 55.9672 227.755 55.3652 227.265C54.7632 226.761 54.4622 225.872 54.4622 224.598V219.474H51.8372V217.584H53.3912C54.1052 217.584 54.5252 217.234 54.6512 216.534L54.9662 214.854H56.6882V217.584H60.8042V219.474H56.6882V224.556C56.6882 225.102 56.8072 225.487 57.0452 225.711C57.2972 225.921 57.7242 226.026 58.3262 226.026H60.7622V228H57.8012ZM69.049 215.988C68.559 215.988 68.146 215.834 67.81 215.526C67.488 215.204 67.327 214.812 67.327 214.35C67.327 213.888 67.488 213.503 67.81 213.195C68.146 212.887 68.559 212.733 69.049 212.733C69.553 212.733 69.966 212.887 70.288 213.195C70.624 213.503 70.792 213.888 70.792 214.35C70.792 214.812 70.624 215.204 70.288 215.526C69.966 215.834 69.553 215.988 69.049 215.988ZM64.87 228V226.068H68.146V220.209C68.146 219.747 67.922 219.516 67.474 219.516H65.164V217.584H67.873C68.741 217.584 69.371 217.787 69.763 218.193C70.169 218.585 70.372 219.215 70.372 220.083V226.068H73.648V228H64.87ZM81.8508 228.252C80.8568 228.252 79.9678 228.028 79.1838 227.58C78.3998 227.132 77.7838 226.502 77.3358 225.69C76.8878 224.864 76.6638 223.898 76.6638 222.792C76.6638 221.686 76.8878 220.727 77.3358 219.915C77.7838 219.089 78.3998 218.452 79.1838 218.004C79.9678 217.556 80.8638 217.332 81.8718 217.332C82.8798 217.332 83.7688 217.556 84.5388 218.004C85.3228 218.452 85.9318 219.089 86.3658 219.915C86.8138 220.727 87.0378 221.686 87.0378 222.792C87.0378 223.898 86.8138 224.864 86.3658 225.69C85.9178 226.502 85.3018 227.132 84.5178 227.58C83.7478 228.028 82.8588 228.252 81.8508 228.252ZM81.8508 226.131C82.3828 226.131 82.8728 226.012 83.3208 225.774C83.7688 225.536 84.1258 225.172 84.3918 224.682C84.6718 224.178 84.8118 223.548 84.8118 222.792C84.8118 222.022 84.6718 221.392 84.3918 220.902C84.1258 220.412 83.7688 220.048 83.3208 219.81C82.8868 219.572 82.4038 219.453 81.8718 219.453C81.3398 219.453 80.8498 219.572 80.4018 219.81C79.9538 220.048 79.5898 220.412 79.3098 220.902C79.0438 221.392 78.9108 222.022 78.9108 222.792C78.9108 223.94 79.1978 224.787 79.7718 225.333C80.3598 225.865 81.0528 226.131 81.8508 226.131ZM89.7806 228V217.584H91.7126L91.9016 219.138H92.0066C92.2866 218.634 92.7206 218.207 93.3086 217.857C93.8966 217.507 94.5756 217.332 95.3456 217.332C96.6196 217.332 97.5786 217.717 98.2226 218.487C98.8666 219.257 99.1886 220.391 99.1886 221.889V228H96.9626V222.162C96.9626 221.294 96.7806 220.622 96.4166 220.146C96.0526 219.67 95.4786 219.432 94.6946 219.432C93.9246 219.432 93.2806 219.691 92.7626 220.209C92.2586 220.727 92.0066 221.476 92.0066 222.456V228H89.7806ZM107.118 228.252C105.746 228.252 104.654 227.93 103.842 227.286C103.03 226.642 102.568 225.788 102.456 224.724H104.745C104.829 225.214 105.074 225.613 105.48 225.921C105.9 226.229 106.453 226.383 107.139 226.383C107.797 226.383 108.301 226.25 108.651 225.984C109.015 225.704 109.197 225.382 109.197 225.018C109.197 224.486 108.98 224.122 108.546 223.926C108.126 223.73 107.503 223.583 106.677 223.485C105.963 223.401 105.312 223.24 104.724 223.002C104.15 222.75 103.695 222.414 103.359 221.994C103.023 221.56 102.855 221.021 102.855 220.377C102.855 219.467 103.212 218.732 103.926 218.172C104.64 217.612 105.634 217.332 106.908 217.332C108.182 217.332 109.169 217.619 109.869 218.193C110.569 218.767 110.975 219.551 111.087 220.545H108.945C108.889 220.125 108.672 219.796 108.294 219.558C107.916 219.306 107.447 219.18 106.887 219.18C106.313 219.18 105.858 219.292 105.522 219.516C105.186 219.726 105.018 220.006 105.018 220.356C105.018 221.112 105.83 221.574 107.454 221.742C108.224 221.826 108.91 221.973 109.512 222.183C110.114 222.379 110.59 222.694 110.94 223.128C111.29 223.548 111.465 224.143 111.465 224.913C111.479 225.543 111.297 226.11 110.919 226.614C110.555 227.118 110.044 227.517 109.386 227.811C108.742 228.105 107.986 228.252 107.118 228.252Z" fill="black"/>
<path d="M226.436 138L224.168 127.584H226.352L227.612 134.892L229.103 127.584H231.497L232.988 134.892L234.248 127.584H236.432L234.164 138H231.875L230.3 130.482L228.725 138H226.436ZM242.682 125.988C242.192 125.988 241.779 125.834 241.443 125.526C241.121 125.204 240.96 124.812 240.96 124.35C240.96 123.888 241.121 123.503 241.443 123.195C241.779 122.887 242.192 122.733 242.682 122.733C243.186 122.733 243.599 122.887 243.921 123.195C244.257 123.503 244.425 123.888 244.425 124.35C244.425 124.812 244.257 125.204 243.921 125.526C243.599 125.834 243.186 125.988 242.682 125.988ZM238.503 138V136.068H241.779V130.209C241.779 129.747 241.555 129.516 241.107 129.516H238.797V127.584H241.506C242.374 127.584 243.004 127.787 243.396 128.193C243.802 128.585 244.005 129.215 244.005 130.083V136.068H247.281V138H238.503ZM256.618 138C255.596 138 254.784 137.755 254.182 137.265C253.58 136.761 253.279 135.872 253.279 134.598V129.474H250.654V127.584H252.208C252.922 127.584 253.342 127.234 253.468 126.534L253.783 124.854H255.505V127.584H259.621V129.474H255.505V134.556C255.505 135.102 255.624 135.487 255.862 135.711C256.114 135.921 256.541 136.026 257.143 136.026H259.579V138H256.618ZM263.308 138V122.88H265.534V129.138C265.814 128.62 266.262 128.193 266.878 127.857C267.494 127.507 268.187 127.332 268.957 127.332C270.245 127.332 271.225 127.724 271.897 128.508C272.569 129.278 272.905 130.391 272.905 131.847V138H270.679V132.162C270.679 131.294 270.469 130.622 270.049 130.146C269.629 129.67 269.048 129.432 268.306 129.432C267.536 129.432 266.878 129.691 266.332 130.209C265.8 130.727 265.534 131.476 265.534 132.456V138H263.308Z" fill="black"/>
<rect x="59" y="151" width="219" height="44" fill="white"/>
<path d="M70.23 185V181.804H75.398V164.396H70.298V161.2H84.102V164.396H79.002V181.804H84.17V185H70.23ZM90.0387 185V168.136H93.1667L93.4727 170.652H93.6427C94.0961 169.836 94.7987 169.145 95.7507 168.578C96.7027 168.011 97.8021 167.728 99.0487 167.728C101.111 167.728 102.664 168.351 103.707 169.598C104.749 170.845 105.271 172.681 105.271 175.106V185H101.667V175.548C101.667 174.143 101.372 173.055 100.783 172.284C100.193 171.513 99.2641 171.128 97.9947 171.128C96.7481 171.128 95.7054 171.547 94.8667 172.386C94.0507 173.225 93.6427 174.437 93.6427 176.024V185H90.0387ZM110.425 185V168.136H113.553L113.859 170.652H114.029C114.483 169.836 115.185 169.145 116.137 168.578C117.089 168.011 118.189 167.728 119.435 167.728C121.498 167.728 123.051 168.351 124.093 169.598C125.136 170.845 125.657 172.681 125.657 175.106V185H122.053V175.548C122.053 174.143 121.759 173.055 121.169 172.284C120.58 171.513 119.651 171.128 118.381 171.128C117.135 171.128 116.092 171.547 115.253 172.386C114.437 173.225 114.029 174.437 114.029 176.024V185H110.425ZM138.36 185.408C136.751 185.408 135.311 185.045 134.042 184.32C132.773 183.595 131.775 182.575 131.05 181.26C130.325 179.923 129.962 178.359 129.962 176.568C129.962 174.777 130.325 173.225 131.05 171.91C131.775 170.573 132.773 169.541 134.042 168.816C135.311 168.091 136.762 167.728 138.394 167.728C140.026 167.728 141.465 168.091 142.712 168.816C143.981 169.541 144.967 170.573 145.67 171.91C146.395 173.225 146.758 174.777 146.758 176.568C146.758 178.359 146.395 179.923 145.67 181.26C144.945 182.575 143.947 183.595 142.678 184.32C141.431 185.045 139.992 185.408 138.36 185.408ZM138.36 181.974C139.221 181.974 140.015 181.781 140.74 181.396C141.465 181.011 142.043 180.421 142.474 179.628C142.927 178.812 143.154 177.792 143.154 176.568C143.154 175.321 142.927 174.301 142.474 173.508C142.043 172.715 141.465 172.125 140.74 171.74C140.037 171.355 139.255 171.162 138.394 171.162C137.533 171.162 136.739 171.355 136.014 171.74C135.289 172.125 134.699 172.715 134.246 173.508C133.815 174.301 133.6 175.321 133.6 176.568C133.6 178.427 134.065 179.798 134.994 180.682C135.946 181.543 137.068 181.974 138.36 181.974ZM156.571 185L149.261 168.136H153.341L158.747 181.192L164.187 168.136H168.233L160.889 185H156.571ZM177.604 185.408C176.266 185.408 175.144 185.181 174.238 184.728C173.331 184.252 172.651 183.629 172.198 182.858C171.744 182.065 171.518 181.203 171.518 180.274C171.518 178.619 172.118 177.327 173.32 176.398C174.544 175.469 176.266 175.004 178.488 175.004H182.84V174.63C182.84 172.091 181.661 170.822 179.304 170.822C178.329 170.822 177.502 171.037 176.822 171.468C176.164 171.876 175.722 172.545 175.496 173.474H171.892C172.073 171.706 172.832 170.312 174.17 169.292C175.53 168.249 177.241 167.728 179.304 167.728C181.797 167.728 183.61 168.34 184.744 169.564C185.877 170.788 186.444 172.477 186.444 174.63V185H183.384L183.078 182.518H182.84C182.341 183.311 181.718 183.991 180.97 184.558C180.222 185.125 179.1 185.408 177.604 185.408ZM178.284 182.382C179.757 182.382 180.856 181.94 181.582 181.056C182.33 180.149 182.738 179.005 182.806 177.622H178.862C177.57 177.622 176.652 177.837 176.108 178.268C175.586 178.676 175.326 179.254 175.326 180.002C175.326 180.75 175.586 181.339 176.108 181.77C176.652 182.178 177.377 182.382 178.284 182.382ZM201.356 185C199.702 185 198.387 184.603 197.412 183.81C196.438 182.994 195.95 181.555 195.95 179.492V171.196H191.7V168.136H194.216C195.372 168.136 196.052 167.569 196.256 166.436L196.766 163.716H199.554V168.136H206.218V171.196H199.554V179.424C199.554 180.308 199.747 180.931 200.132 181.294C200.54 181.634 201.232 181.804 202.206 181.804H206.15V185H201.356ZM219.567 165.552C218.774 165.552 218.105 165.303 217.561 164.804C217.04 164.283 216.779 163.648 216.779 162.9C216.779 162.152 217.04 161.529 217.561 161.03C218.105 160.531 218.774 160.282 219.567 160.282C220.383 160.282 221.052 160.531 221.573 161.03C222.117 161.529 222.389 162.152 222.389 162.9C222.389 163.648 222.117 164.283 221.573 164.804C221.052 165.303 220.383 165.552 219.567 165.552ZM212.801 185V181.872H218.105V172.386C218.105 171.638 217.742 171.264 217.017 171.264H213.277V168.136H217.663C219.068 168.136 220.088 168.465 220.723 169.122C221.38 169.757 221.709 170.777 221.709 172.182V181.872H227.013V185H212.801ZM232.746 185V168.136H235.874L236.18 170.652H236.35C236.803 169.836 237.506 169.145 238.458 168.578C239.41 168.011 240.509 167.728 241.756 167.728C243.818 167.728 245.371 168.351 246.414 169.598C247.456 170.845 247.978 172.681 247.978 175.106V185H244.374V175.548C244.374 174.143 244.079 173.055 243.49 172.284C242.9 171.513 241.971 171.128 240.702 171.128C239.455 171.128 238.412 171.547 237.574 172.386C236.758 173.225 236.35 174.437 236.35 176.024V185H232.746ZM260.306 180.138C259.264 180.138 258.3 179.968 257.416 179.628L256.566 180.648C256.294 180.988 256.215 181.317 256.328 181.634C256.464 181.929 256.77 182.076 257.246 182.076H261.7C263.672 182.076 265.259 182.495 266.46 183.334C267.684 184.15 268.296 185.408 268.296 187.108C268.296 188.173 268.024 189.137 267.48 189.998C266.959 190.882 266.109 191.585 264.93 192.106C263.774 192.627 262.244 192.888 260.34 192.888C257.938 192.888 256 192.435 254.526 191.528C253.076 190.644 252.35 189.307 252.35 187.516C252.35 186.881 252.498 186.292 252.792 185.748C253.11 185.227 253.518 184.751 254.016 184.32C253.404 183.867 253.03 183.232 252.894 182.416C252.781 181.577 253.03 180.773 253.642 180.002L255.138 178.098C254.073 176.965 253.54 175.571 253.54 173.916C253.54 172.805 253.801 171.785 254.322 170.856C254.866 169.904 255.637 169.145 256.634 168.578C257.654 168.011 258.878 167.728 260.306 167.728C261.236 167.728 262.097 167.864 262.89 168.136H269.248V170.516L266.29 170.686V170.992C266.766 171.876 267.004 172.851 267.004 173.916C267.004 175.027 266.732 176.058 266.188 177.01C265.667 177.962 264.908 178.721 263.91 179.288C262.913 179.855 261.712 180.138 260.306 180.138ZM260.306 177.248C261.304 177.248 262.12 176.953 262.754 176.364C263.412 175.775 263.74 174.959 263.74 173.916C263.74 172.919 263.412 172.125 262.754 171.536C262.12 170.947 261.304 170.652 260.306 170.652C259.286 170.652 258.448 170.947 257.79 171.536C257.156 172.125 256.838 172.919 256.838 173.916C256.838 174.959 257.156 175.775 257.79 176.364C258.448 176.953 259.286 177.248 260.306 177.248ZM255.75 187.244C255.75 188.151 256.181 188.819 257.042 189.25C257.926 189.681 259.026 189.896 260.34 189.896C261.746 189.896 262.856 189.658 263.672 189.182C264.488 188.706 264.896 188.037 264.896 187.176C264.896 186.451 264.602 185.873 264.012 185.442C263.423 185.034 262.426 184.83 261.02 184.83H257.042C256.181 185.51 255.75 186.315 255.75 187.244Z" fill="black"/>
</svg>
