<svg width="161" height="33" viewBox="0 0 161 33" fill="none" xmlns="http://www.w3.org/2000/svg">
<path d="M18.0305 5.76191C18.1523 5.76191 18.3088 5.81429 18.5002 5.91905C18.6915 6.00635 18.7872 6.2508 18.7872 6.65238V8.69524C18.7872 8.90476 18.7524 9.07937 18.6828 9.21905C18.6306 9.34127 18.5611 9.4373 18.4741 9.50714C18.4045 9.55953 18.3262 9.59445 18.2392 9.61191C18.1523 9.62937 18.0827 9.6381 18.0305 9.6381H11.3245V26.4524C11.3245 26.854 11.2288 27.1071 11.0375 27.2119C10.8635 27.2992 10.7157 27.3429 10.5939 27.3429H8.19331C8.08894 27.3429 7.94107 27.2992 7.74972 27.2119C7.55837 27.1071 7.4627 26.854 7.4627 26.4524V9.6381H0.756707C0.70452 9.6381 0.634938 9.62937 0.54796 9.61191C0.460982 9.59445 0.374005 9.55953 0.287027 9.50714C0.217445 9.4373 0.147862 9.34127 0.07828 9.21905C0.0260933 9.07937 0 8.90476 0 8.69524V6.65238C0 6.2508 0.0956756 6.00635 0.287027 5.91905C0.478378 5.81429 0.634938 5.76191 0.756707 5.76191H18.0305Z" fill="#F56B00"/>
<path d="M35.8143 5.76191C35.9187 5.76191 36.0666 5.81429 36.2579 5.91905C36.4493 6.02381 36.5449 6.27699 36.5449 6.67857V8.72143C36.5449 9.12302 36.4493 9.37619 36.2579 9.48095C36.0666 9.58572 35.9187 9.6381 35.8143 9.6381H20.8107C20.7063 9.6381 20.5584 9.59445 20.3671 9.50714C20.1931 9.40238 20.1061 9.14921 20.1061 8.74762V6.70476C20.1061 6.28572 20.1931 6.02381 20.3671 5.91905C20.5584 5.81429 20.7063 5.76191 20.8107 5.76191H35.8143ZM24.0201 21.0833C24.0201 21.9738 24.2463 22.5937 24.6986 22.9429C25.1683 23.2921 25.8032 23.4667 26.6034 23.4667H35.7882C36.0666 23.4667 36.2579 23.554 36.3623 23.7286C36.4841 23.9032 36.5449 24.1127 36.5449 24.3571V26.4524C36.5449 26.6968 36.4841 26.9063 36.3623 27.081C36.2579 27.2556 36.0666 27.3429 35.7882 27.3429H26.5251C25.2726 27.3429 24.2289 27.1683 23.3939 26.819C22.5763 26.4524 21.924 25.9373 21.4369 25.2738C20.9498 24.6103 20.6019 23.8159 20.3932 22.8905C20.2018 21.9476 20.1061 20.9 20.1061 19.7476V16.2905C20.1061 16.081 20.1409 15.8714 20.2105 15.6619C20.2801 15.4349 20.3932 15.2429 20.5497 15.0857C20.7237 14.9111 20.9411 14.7714 21.2021 14.6667C21.4804 14.5619 21.8196 14.5095 22.2197 14.5095H35.6839C35.9448 14.5095 36.1275 14.5968 36.2318 14.7714C36.3536 14.946 36.4145 15.1556 36.4145 15.4V17.469C36.4145 17.7135 36.3536 17.9317 36.2318 18.1238C36.1275 18.2984 35.9448 18.3857 35.6839 18.3857H24.0201V21.0833Z" fill="#F56B00"/>
<path d="M53.7845 5.76191C54.0454 5.76191 54.2281 5.85794 54.3325 6.05C54.4542 6.2246 54.5151 6.43413 54.5151 6.67857C54.5151 6.83571 54.5238 7.08016 54.5412 7.41191C54.576 7.74365 54.5847 8.0754 54.5673 8.40714C54.5499 8.72143 54.4803 9.00952 54.3585 9.27143C54.2542 9.51587 54.0628 9.6381 53.7845 9.6381H44.417C43.756 9.6381 43.2428 9.73413 42.8775 9.92619C42.5122 10.1183 42.2425 10.3889 42.0686 10.7381C41.8946 11.0873 41.7903 11.4976 41.7555 11.969C41.7207 12.423 41.7033 12.9294 41.7033 13.4881V19.5905C41.7033 20.1317 41.7207 20.6468 41.7555 21.1357C41.7903 21.6071 41.8946 22.0175 42.0686 22.3667C42.2425 22.6984 42.5122 22.969 42.8775 23.1786C43.2428 23.3706 43.756 23.4667 44.417 23.4667H53.7845C54.0454 23.4667 54.2281 23.5627 54.3325 23.7548C54.4542 23.9294 54.5151 24.1389 54.5151 24.3833C54.5151 24.5579 54.5238 24.8111 54.5412 25.1429C54.576 25.4746 54.5847 25.8063 54.5673 26.1381C54.5499 26.4698 54.4803 26.7579 54.3585 27.0024C54.2542 27.2294 54.0628 27.3429 53.7845 27.3429H44.2865C42.9471 27.3429 41.8511 27.1421 40.9988 26.7405C40.1638 26.3389 39.5114 25.7802 39.0418 25.0643C38.5721 24.3484 38.2503 23.4841 38.0763 22.4714C37.9197 21.4587 37.8415 20.3413 37.8415 19.119V13.9595C37.8415 12.7722 37.9197 11.681 38.0763 10.6857C38.2329 9.67302 38.546 8.80873 39.0157 8.09286C39.4853 7.35952 40.1377 6.79206 40.9727 6.39048C41.825 5.97143 42.9297 5.76191 44.2865 5.76191H53.7845Z" fill="#F56B00"/>
<path d="M111.105 5.00238C111.575 5.00238 111.975 5.07222 112.306 5.21191C112.654 5.35159 112.949 5.54365 113.193 5.7881C113.454 6.01508 113.671 6.29445 113.845 6.62619C114.037 6.95794 114.211 7.3246 114.367 7.72619L121.699 25.8762C121.769 26.0508 121.804 26.1992 121.804 26.3214C121.804 26.496 121.743 26.6357 121.621 26.7405C121.517 26.8452 121.378 26.8976 121.204 26.8976H118.412C118.046 26.8976 117.794 26.7056 117.655 26.3214L111.158 10.0571H111.053L107.661 18.6214H110.897C111.245 18.6214 111.497 18.796 111.653 19.1452C111.706 19.2675 111.784 19.4595 111.888 19.7214C112.01 19.9659 112.123 20.219 112.227 20.481C112.349 20.7429 112.445 20.996 112.514 21.2405C112.601 21.4675 112.645 21.6421 112.645 21.7643C112.645 22.0087 112.567 22.2095 112.41 22.3667C112.254 22.5238 112.054 22.6024 111.81 22.6024H106.096L104.608 26.3476C104.469 26.7143 104.226 26.8976 103.878 26.8976H101.007C100.607 26.8976 100.407 26.7056 100.407 26.3214C100.407 26.1468 100.433 25.9984 100.485 25.8762L107.765 7.72619C108.079 6.94048 108.487 6.29445 108.992 5.7881C109.496 5.26429 110.201 5.00238 111.105 5.00238Z" fill="#F56B00"/>
<path d="M136.063 17.8881C136.167 18.0452 136.35 18.3508 136.611 18.8048C136.872 19.2413 137.176 19.7564 137.524 20.35C137.872 20.9262 138.229 21.5373 138.594 22.1833C138.977 22.8119 139.325 23.4143 139.638 23.9905C139.968 24.5492 140.229 25.0294 140.421 25.431C140.629 25.8151 140.734 26.0595 140.734 26.1643C140.734 26.3563 140.69 26.5222 140.603 26.6619C140.516 26.8016 140.36 26.8714 140.133 26.8714H137.263C137.054 26.8714 136.889 26.8365 136.767 26.7667C136.646 26.6794 136.533 26.5397 136.428 26.3476L131.705 17.9667H126.2V25.9548C126.2 26.1992 126.139 26.4175 126.017 26.6095C125.913 26.7841 125.73 26.8714 125.469 26.8714H123.095C122.834 26.8714 122.642 26.7841 122.52 26.6095C122.399 26.4175 122.338 26.1992 122.338 25.9548V14.981C122.338 14.7365 122.39 14.527 122.494 14.3524C122.616 14.1778 122.816 14.0905 123.095 14.0905H134.445C134.845 14.0905 135.158 14.0294 135.384 13.9071C135.628 13.7675 135.811 13.5841 135.932 13.3571C136.054 13.1302 136.132 12.8683 136.167 12.5714C136.219 12.2746 136.246 11.9603 136.246 11.6286C136.246 11.2968 136.219 10.9825 136.167 10.6857C136.132 10.3889 136.054 10.127 135.932 9.9C135.811 9.67302 135.628 9.49841 135.384 9.37619C135.158 9.23651 134.845 9.16667 134.445 9.16667H123.095C122.816 9.16667 122.616 9.07937 122.494 8.90476C122.39 8.73016 122.338 8.52064 122.338 8.27619V6.20714C122.338 5.9627 122.39 5.75318 122.494 5.57857C122.616 5.38651 122.816 5.29048 123.095 5.29048H135.124C136.115 5.29048 136.933 5.45635 137.576 5.7881C138.22 6.11984 138.724 6.57381 139.09 7.15C139.472 7.72619 139.742 8.39841 139.899 9.16667C140.055 9.93492 140.133 10.7556 140.133 11.6286C140.133 12.3619 140.073 13.0865 139.951 13.8024C139.846 14.5008 139.638 15.1381 139.325 15.7143C139.029 16.273 138.62 16.7532 138.098 17.1548C137.576 17.5389 136.898 17.7833 136.063 17.8881Z" fill="#F56B00"/>
<path d="M154.555 5.29048C155.912 5.29048 157.008 5.5 157.843 5.91905C158.695 6.32064 159.356 6.8881 159.826 7.62143C160.295 8.3373 160.609 9.20159 160.765 10.2143C160.922 11.2095 161 12.3008 161 13.4881V18.6738C161 19.8611 160.922 20.9611 160.765 21.9738C160.609 22.969 160.295 23.8333 159.826 24.5667C159.374 25.3 158.721 25.8762 157.869 26.2952C157.034 26.6968 155.929 26.8976 154.555 26.8976H148.188C146.831 26.8976 145.727 26.6881 144.874 26.269C144.039 25.85 143.387 25.2738 142.917 24.5405C142.465 23.8071 142.161 22.9429 142.004 21.9476C141.847 20.9349 141.769 19.8437 141.769 18.6738V13.4881C141.769 12.3183 141.847 11.2357 142.004 10.2405C142.161 9.22778 142.474 8.35476 142.943 7.62143C143.413 6.8881 144.065 6.32064 144.9 5.91905C145.735 5.5 146.831 5.29048 148.188 5.29048H154.555ZM157.112 13.0429C157.112 12.5016 157.095 11.9952 157.06 11.5238C157.025 11.0524 156.921 10.6421 156.747 10.2929C156.59 9.94365 156.329 9.67302 155.964 9.48095C155.599 9.27143 155.086 9.16667 154.424 9.16667H148.319C147.675 9.16667 147.171 9.27143 146.805 9.48095C146.44 9.67302 146.17 9.94365 145.996 10.2929C145.822 10.6421 145.718 11.0524 145.683 11.5238C145.648 11.9952 145.631 12.5016 145.631 13.0429V19.1452C145.631 19.6865 145.648 20.1929 145.683 20.6643C145.718 21.1357 145.822 21.546 145.996 21.8952C146.17 22.227 146.44 22.4976 146.805 22.7071C147.171 22.8992 147.675 22.9952 148.319 22.9952H154.424C155.086 22.9952 155.599 22.8992 155.964 22.7071C156.329 22.4976 156.59 22.227 156.747 21.8952C156.921 21.546 157.025 21.1357 157.06 20.6643C157.095 20.1929 157.112 19.6865 157.112 19.1452V13.0429Z" fill="#F56B00"/>
<path d="M91.3789 0H96.0757V7.07143L83.5352 16.5471L96.0757 26.0229V33H91.3789V28.38L79.6369 19.5171L67.8949 28.38V33H63.1981V26.0229L75.7385 16.5471L63.1981 7.07143V0H67.8949V4.71429L79.6369 13.5771L91.3789 4.71429V0Z" fill="white"/>
</svg>
