<svg width="84" height="87" viewBox="0 0 84 87" fill="none" xmlns="http://www.w3.org/2000/svg">
<path fill-rule="evenodd" clip-rule="evenodd" d="M73.7372 0C79.4015 0 84 4.76334 84 10.6302V76.3776C84 82.2445 79.4013 87.0078 73.7372 87.0078H10.2628C4.59867 87.0078 0 82.2445 0 76.3776V10.6302C0 4.76334 4.59851 0 10.2628 0L73.7372 0ZM64.1112 21.7015C58.559 15.9438 51.1754 12.7716 43.3084 12.7682C27.0992 12.7682 13.9068 26.432 13.9004 43.2267C13.8982 48.5956 15.2524 53.8356 17.8259 58.4551L13.6539 74.2396L29.2433 70.0039C33.5386 72.4306 38.3749 73.7097 43.2966 73.7113H43.3087C59.5163 73.7113 72.7097 60.0461 72.7164 43.2512C72.7194 35.1121 69.6632 27.459 64.1112 21.7015ZM43.3086 68.5671H43.2987C38.9127 68.5654 34.611 67.3447 30.8582 65.038L29.9655 64.4893L20.7147 67.003L23.1838 57.6603L22.6027 56.7024C20.1561 52.6715 18.8636 48.0125 18.8655 43.2286C18.871 29.2696 29.8359 17.9129 43.3184 17.9129C49.8469 17.9153 55.9839 20.5522 60.5989 25.3378C65.2137 30.1232 67.7535 36.4843 67.7511 43.2492C67.7455 57.2093 56.7809 68.5669 43.3086 68.5671ZM56.7159 49.6053C55.9811 49.2243 52.3684 47.3834 51.6949 47.1292C51.0215 46.8751 50.5316 46.7483 50.0417 47.51C49.5518 48.2718 48.1437 49.9863 47.715 50.4944C47.2864 51.0022 46.8577 51.0661 46.1231 50.6848C45.3882 50.3039 43.0206 49.5003 40.214 46.9071C38.0297 44.8889 36.5548 42.3966 36.1262 41.6346C35.6977 40.8726 36.0805 40.4607 36.4483 40.0814C36.779 39.7403 37.1833 39.1923 37.5506 38.7479C37.9181 38.3035 38.0405 37.9859 38.2855 37.4781C38.5304 36.97 38.408 36.5258 38.2241 36.1448C38.0405 35.7639 36.5708 32.0173 35.9586 30.4933C35.3622 29.0093 34.7565 29.2103 34.3053 29.1869C33.8773 29.1648 33.3869 29.16 32.8972 29.16C32.4073 29.16 31.6111 29.3505 30.9376 30.1123C30.2641 30.8743 28.3659 32.7158 28.3659 36.4619C28.3659 40.2083 30.9988 43.8273 31.3661 44.3354C31.7336 44.8435 36.5475 52.531 43.9187 55.8277C45.6717 56.612 47.0405 57.0803 48.1077 57.4309C49.8678 58.0104 51.4697 57.9287 52.7358 57.7326C54.1475 57.5142 57.0832 55.8916 57.6955 54.1138C58.3078 52.3355 58.3078 50.8117 58.1241 50.4944C57.9405 50.1768 57.4506 49.9863 56.7159 49.6053Z" fill="#E9E9E9"/>
</svg>
