<svg width="84" height="88" viewBox="0 0 84 88" fill="none" xmlns="http://www.w3.org/2000/svg">
<path fill-rule="evenodd" clip-rule="evenodd" d="M73.7372 0.144531C79.4015 0.144531 84 4.90787 84 10.7748V76.5221C84 82.389 79.4013 87.1523 73.7372 87.1523H10.2628C4.59867 87.1523 0 82.389 0 76.5221V10.7748C0 4.90787 4.59851 0.144531 10.2628 0.144531L73.7372 0.144531ZM70.2973 29.9906C69.6183 27.3584 67.6171 25.2855 65.0759 24.5822C60.4693 23.3036 42 23.3036 42 23.3036C42 23.3036 23.5307 23.3036 18.9241 24.5822C16.3834 25.2855 14.3819 27.3584 13.7027 29.9906C12.4688 34.7616 12.4688 44.716 12.4688 44.716C12.4688 44.716 12.4688 54.6702 13.7027 59.4407C14.3819 62.0728 16.3834 64.1462 18.9241 64.8496C23.5307 66.1277 42 66.1277 42 66.1277C42 66.1277 60.4693 66.1277 65.0759 64.8496C67.6171 64.1462 69.6183 62.0728 70.2973 59.4407C71.5312 54.6702 71.5312 44.716 71.5312 44.716C71.5312 44.716 71.5312 34.7616 70.2973 29.9906ZM36.0934 53.8927V35.5392L51.4382 44.716L36.0934 53.8927Z" fill="#E9E9E9"/>
</svg>
